<svg class="diag" viewBox="0 0 455 235" role="img">
<title>원 마스크 — 행 span 과 미드포인트 외곽선</title>
<rect class="tl dim" x="20" y="24" width="13" height="13"/>
<rect class="tl dim" x="35" y="24" width="13" height="13"/>
<rect class="tl dim" x="50" y="24" width="13" height="13"/>
<rect class="tl dim" x="65" y="24" width="13" height="13"/>
<rect class="tl cool" x="80" y="24" width="13" height="13"/>
<rect class="tl cool" x="95" y="24" width="13" height="13"/>
<rect class="tl hot" x="110" y="24" width="13" height="13"/>
<rect class="tl cool" x="125" y="24" width="13" height="13"/>
<rect class="tl cool" x="140" y="24" width="13" height="13"/>
<rect class="tl dim" x="155" y="24" width="13" height="13"/>
<rect class="tl dim" x="170" y="24" width="13" height="13"/>
<rect class="tl dim" x="185" y="24" width="13" height="13"/>
<rect class="tl dim" x="200" y="24" width="13" height="13"/>
<text class="lbl" x="223" y="34" text-anchor="start">span 0</text>
<rect class="tl dim" x="20" y="39" width="13" height="13"/>
<rect class="tl dim" x="35" y="39" width="13" height="13"/>
<rect class="tl dim" x="50" y="39" width="13" height="13"/>
<rect class="tl hot" x="65" y="39" width="13" height="13"/>
<rect class="tl on" x="80" y="39" width="13" height="13"/>
<rect class="tl on" x="95" y="39" width="13" height="13"/>
<rect class="tl on" x="110" y="39" width="13" height="13"/>
<rect class="tl on" x="125" y="39" width="13" height="13"/>
<rect class="tl on" x="140" y="39" width="13" height="13"/>
<rect class="tl hot" x="155" y="39" width="13" height="13"/>
<rect class="tl dim" x="170" y="39" width="13" height="13"/>
<rect class="tl dim" x="185" y="39" width="13" height="13"/>
<rect class="tl dim" x="200" y="39" width="13" height="13"/>
<text class="lbl" x="223" y="49" text-anchor="start">span 3</text>
<rect class="tl dim" x="20" y="54" width="13" height="13"/>
<rect class="tl dim" x="35" y="54" width="13" height="13"/>
<rect class="tl hot" x="50" y="54" width="13" height="13"/>
<rect class="tl on" x="65" y="54" width="13" height="13"/>
<rect class="tl on" x="80" y="54" width="13" height="13"/>
<rect class="tl on" x="95" y="54" width="13" height="13"/>
<rect class="tl on" x="110" y="54" width="13" height="13"/>
<rect class="tl on" x="125" y="54" width="13" height="13"/>
<rect class="tl on" x="140" y="54" width="13" height="13"/>
<rect class="tl on" x="155" y="54" width="13" height="13"/>
<rect class="tl hot" x="170" y="54" width="13" height="13"/>
<rect class="tl dim" x="185" y="54" width="13" height="13"/>
<rect class="tl dim" x="200" y="54" width="13" height="13"/>
<text class="lbl" x="223" y="64" text-anchor="start">span 4</text>
<rect class="tl dim" x="20" y="69" width="13" height="13"/>
<rect class="tl hot" x="35" y="69" width="13" height="13"/>
<rect class="tl on" x="50" y="69" width="13" height="13"/>
<rect class="tl on" x="65" y="69" width="13" height="13"/>
<rect class="tl on" x="80" y="69" width="13" height="13"/>
<rect class="tl on" x="95" y="69" width="13" height="13"/>
<rect class="tl on" x="110" y="69" width="13" height="13"/>
<rect class="tl on" x="125" y="69" width="13" height="13"/>
<rect class="tl on" x="140" y="69" width="13" height="13"/>
<rect class="tl on" x="155" y="69" width="13" height="13"/>
<rect class="tl on" x="170" y="69" width="13" height="13"/>
<rect class="tl hot" x="185" y="69" width="13" height="13"/>
<rect class="tl dim" x="200" y="69" width="13" height="13"/>
<text class="lbl" x="223" y="79" text-anchor="start">span 5</text>
<rect class="tl cool" x="20" y="84" width="13" height="13"/>
<rect class="tl on" x="35" y="84" width="13" height="13"/>
<rect class="tl on" x="50" y="84" width="13" height="13"/>
<rect class="tl on" x="65" y="84" width="13" height="13"/>
<rect class="tl on" x="80" y="84" width="13" height="13"/>
<rect class="tl on" x="95" y="84" width="13" height="13"/>
<rect class="tl on" x="110" y="84" width="13" height="13"/>
<rect class="tl on" x="125" y="84" width="13" height="13"/>
<rect class="tl on" x="140" y="84" width="13" height="13"/>
<rect class="tl on" x="155" y="84" width="13" height="13"/>
<rect class="tl on" x="170" y="84" width="13" height="13"/>
<rect class="tl on" x="185" y="84" width="13" height="13"/>
<rect class="tl cool" x="200" y="84" width="13" height="13"/>
<text class="lbl" x="223" y="94" text-anchor="start">span 5</text>
<rect class="tl cool" x="20" y="99" width="13" height="13"/>
<rect class="tl on" x="35" y="99" width="13" height="13"/>
<rect class="tl on" x="50" y="99" width="13" height="13"/>
<rect class="tl on" x="65" y="99" width="13" height="13"/>
<rect class="tl on" x="80" y="99" width="13" height="13"/>
<rect class="tl on" x="95" y="99" width="13" height="13"/>
<rect class="tl on" x="110" y="99" width="13" height="13"/>
<rect class="tl on" x="125" y="99" width="13" height="13"/>
<rect class="tl on" x="140" y="99" width="13" height="13"/>
<rect class="tl on" x="155" y="99" width="13" height="13"/>
<rect class="tl on" x="170" y="99" width="13" height="13"/>
<rect class="tl on" x="185" y="99" width="13" height="13"/>
<rect class="tl cool" x="200" y="99" width="13" height="13"/>
<text class="lbl" x="223" y="109" text-anchor="start">span 5</text>
<rect class="tl hot" x="20" y="114" width="13" height="13"/>
<rect class="tl on" x="35" y="114" width="13" height="13"/>
<rect class="tl on" x="50" y="114" width="13" height="13"/>
<rect class="tl on" x="65" y="114" width="13" height="13"/>
<rect class="tl on" x="80" y="114" width="13" height="13"/>
<rect class="tl on" x="95" y="114" width="13" height="13"/>
<rect class="tl on" x="110" y="114" width="13" height="13"/>
<rect class="tl on" x="125" y="114" width="13" height="13"/>
<rect class="tl on" x="140" y="114" width="13" height="13"/>
<rect class="tl on" x="155" y="114" width="13" height="13"/>
<rect class="tl on" x="170" y="114" width="13" height="13"/>
<rect class="tl on" x="185" y="114" width="13" height="13"/>
<rect class="tl hot" x="200" y="114" width="13" height="13"/>
<text class="lbl" x="223" y="124" text-anchor="start">span 6</text>
<rect class="tl cool" x="20" y="129" width="13" height="13"/>
<rect class="tl on" x="35" y="129" width="13" height="13"/>
<rect class="tl on" x="50" y="129" width="13" height="13"/>
<rect class="tl on" x="65" y="129" width="13" height="13"/>
<rect class="tl on" x="80" y="129" width="13" height="13"/>
<rect class="tl on" x="95" y="129" width="13" height="13"/>
<rect class="tl on" x="110" y="129" width="13" height="13"/>
<rect class="tl on" x="125" y="129" width="13" height="13"/>
<rect class="tl on" x="140" y="129" width="13" height="13"/>
<rect class="tl on" x="155" y="129" width="13" height="13"/>
<rect class="tl on" x="170" y="129" width="13" height="13"/>
<rect class="tl on" x="185" y="129" width="13" height="13"/>
<rect class="tl cool" x="200" y="129" width="13" height="13"/>
<text class="lbl" x="223" y="139" text-anchor="start">span 5</text>
<rect class="tl cool" x="20" y="144" width="13" height="13"/>
<rect class="tl on" x="35" y="144" width="13" height="13"/>
<rect class="tl on" x="50" y="144" width="13" height="13"/>
<rect class="tl on" x="65" y="144" width="13" height="13"/>
<rect class="tl on" x="80" y="144" width="13" height="13"/>
<rect class="tl on" x="95" y="144" width="13" height="13"/>
<rect class="tl on" x="110" y="144" width="13" height="13"/>
<rect class="tl on" x="125" y="144" width="13" height="13"/>
<rect class="tl on" x="140" y="144" width="13" height="13"/>
<rect class="tl on" x="155" y="144" width="13" height="13"/>
<rect class="tl on" x="170" y="144" width="13" height="13"/>
<rect class="tl on" x="185" y="144" width="13" height="13"/>
<rect class="tl cool" x="200" y="144" width="13" height="13"/>
<text class="lbl" x="223" y="154" text-anchor="start">span 5</text>
<rect class="tl dim" x="20" y="159" width="13" height="13"/>
<rect class="tl hot" x="35" y="159" width="13" height="13"/>
<rect class="tl on" x="50" y="159" width="13" height="13"/>
<rect class="tl on" x="65" y="159" width="13" height="13"/>
<rect class="tl on" x="80" y="159" width="13" height="13"/>
<rect class="tl on" x="95" y="159" width="13" height="13"/>
<rect class="tl on" x="110" y="159" width="13" height="13"/>
<rect class="tl on" x="125" y="159" width="13" height="13"/>
<rect class="tl on" x="140" y="159" width="13" height="13"/>
<rect class="tl on" x="155" y="159" width="13" height="13"/>
<rect class="tl on" x="170" y="159" width="13" height="13"/>
<rect class="tl hot" x="185" y="159" width="13" height="13"/>
<rect class="tl dim" x="200" y="159" width="13" height="13"/>
<text class="lbl" x="223" y="169" text-anchor="start">span 5</text>
<rect class="tl dim" x="20" y="174" width="13" height="13"/>
<rect class="tl dim" x="35" y="174" width="13" height="13"/>
<rect class="tl hot" x="50" y="174" width="13" height="13"/>
<rect class="tl on" x="65" y="174" width="13" height="13"/>
<rect class="tl on" x="80" y="174" width="13" height="13"/>
<rect class="tl on" x="95" y="174" width="13" height="13"/>
<rect class="tl on" x="110" y="174" width="13" height="13"/>
<rect class="tl on" x="125" y="174" width="13" height="13"/>
<rect class="tl on" x="140" y="174" width="13" height="13"/>
<rect class="tl on" x="155" y="174" width="13" height="13"/>
<rect class="tl hot" x="170" y="174" width="13" height="13"/>
<rect class="tl dim" x="185" y="174" width="13" height="13"/>
<rect class="tl dim" x="200" y="174" width="13" height="13"/>
<text class="lbl" x="223" y="184" text-anchor="start">span 4</text>
<rect class="tl dim" x="20" y="189" width="13" height="13"/>
<rect class="tl dim" x="35" y="189" width="13" height="13"/>
<rect class="tl dim" x="50" y="189" width="13" height="13"/>
<rect class="tl hot" x="65" y="189" width="13" height="13"/>
<rect class="tl on" x="80" y="189" width="13" height="13"/>
<rect class="tl on" x="95" y="189" width="13" height="13"/>
<rect class="tl on" x="110" y="189" width="13" height="13"/>
<rect class="tl on" x="125" y="189" width="13" height="13"/>
<rect class="tl on" x="140" y="189" width="13" height="13"/>
<rect class="tl hot" x="155" y="189" width="13" height="13"/>
<rect class="tl dim" x="170" y="189" width="13" height="13"/>
<rect class="tl dim" x="185" y="189" width="13" height="13"/>
<rect class="tl dim" x="200" y="189" width="13" height="13"/>
<text class="lbl" x="223" y="199" text-anchor="start">span 3</text>
<rect class="tl dim" x="20" y="204" width="13" height="13"/>
<rect class="tl dim" x="35" y="204" width="13" height="13"/>
<rect class="tl dim" x="50" y="204" width="13" height="13"/>
<rect class="tl dim" x="65" y="204" width="13" height="13"/>
<rect class="tl cool" x="80" y="204" width="13" height="13"/>
<rect class="tl cool" x="95" y="204" width="13" height="13"/>
<rect class="tl hot" x="110" y="204" width="13" height="13"/>
<rect class="tl cool" x="125" y="204" width="13" height="13"/>
<rect class="tl cool" x="140" y="204" width="13" height="13"/>
<rect class="tl dim" x="155" y="204" width="13" height="13"/>
<rect class="tl dim" x="170" y="204" width="13" height="13"/>
<rect class="tl dim" x="185" y="204" width="13" height="13"/>
<rect class="tl dim" x="200" y="204" width="13" height="13"/>
<text class="lbl" x="223" y="214" text-anchor="start">span 0</text>
<text x="20" y="16" text-anchor="start">r=6 · 안에 드는 칸 113개 (가우스 원 문제 N(r))</text>
<text class="lbl" x="305" y="211" text-anchor="start">주황: 외곽선이 찍은 칸 중 원 안</text>
<text class="lbl" x="305" y="225" text-anchor="start">파랑: 외곽선이 찍었으나 원 밖</text>
</svg>
