<svg class="diag" viewBox="0 0 448 468" role="img">
<title>적분장과 경사장 — 목표 (4,4), 골든 9절 그대로</title>
<rect class="tl none" x="20" y="30" width="32" height="32"/>
<rect class="tl none" x="54" y="30" width="32" height="32"/>
<rect class="tl none" x="88" y="30" width="32" height="32"/>
<rect class="tl none" x="122" y="30" width="32" height="32"/>
<rect class="tl none" x="156" y="30" width="32" height="32"/>
<rect class="tl none" x="190" y="30" width="32" height="32"/>
<rect class="tl none" x="224" y="30" width="32" height="32"/>
<rect class="tl none" x="258" y="30" width="32" height="32"/>
<rect class="tl none" x="292" y="30" width="32" height="32"/>
<rect class="tl none" x="326" y="30" width="32" height="32"/>
<rect class="tl none" x="360" y="30" width="32" height="32"/>
<rect class="tl none" x="394" y="30" width="32" height="32"/>
<rect class="tl none" x="20" y="64" width="32" height="32"/>
<rect class="tl dim" x="54" y="64" width="32" height="32"/>
<rect class="tl dim" x="88" y="64" width="32" height="32"/>
<rect class="tl dim" x="122" y="64" width="32" height="32"/>
<rect class="tl dim" x="156" y="64" width="32" height="32"/>
<rect class="tl dim" x="190" y="64" width="32" height="32"/>
<rect class="tl dim" x="224" y="64" width="32" height="32"/>
<rect class="tl dim" x="258" y="64" width="32" height="32"/>
<rect class="tl dim" x="292" y="64" width="32" height="32"/>
<rect class="tl dim" x="326" y="64" width="32" height="32"/>
<rect class="tl dim" x="360" y="64" width="32" height="32"/>
<rect class="tl none" x="394" y="64" width="32" height="32"/>
<rect class="tl none" x="20" y="98" width="32" height="32"/>
<rect class="tl dim" x="54" y="98" width="32" height="32"/>
<rect class="tl none" x="88" y="98" width="32" height="32"/>
<rect class="tl none" x="122" y="98" width="32" height="32"/>
<rect class="tl none" x="156" y="98" width="32" height="32"/>
<rect class="tl none" x="190" y="98" width="32" height="32"/>
<rect class="tl none" x="224" y="98" width="32" height="32"/>
<rect class="tl none" x="258" y="98" width="32" height="32"/>
<rect class="tl none" x="292" y="98" width="32" height="32"/>
<rect class="tl none" x="326" y="98" width="32" height="32"/>
<rect class="tl dim" x="360" y="98" width="32" height="32"/>
<rect class="tl none" x="394" y="98" width="32" height="32"/>
<rect class="tl none" x="20" y="132" width="32" height="32"/>
<rect class="tl dim" x="54" y="132" width="32" height="32"/>
<rect class="tl none" x="88" y="132" width="32" height="32"/>
<rect class="tl dim" x="122" y="132" width="32" height="32"/>
<rect class="tl dim" x="156" y="132" width="32" height="32"/>
<rect class="tl dim" x="190" y="132" width="32" height="32"/>
<rect class="tl dim" x="224" y="132" width="32" height="32"/>
<rect class="tl dim" x="258" y="132" width="32" height="32"/>
<rect class="tl dim" x="292" y="132" width="32" height="32"/>
<rect class="tl none" x="326" y="132" width="32" height="32"/>
<rect class="tl dim" x="360" y="132" width="32" height="32"/>
<rect class="tl none" x="394" y="132" width="32" height="32"/>
<rect class="tl none" x="20" y="166" width="32" height="32"/>
<rect class="tl dim" x="54" y="166" width="32" height="32"/>
<rect class="tl none" x="88" y="166" width="32" height="32"/>
<rect class="tl dim" x="122" y="166" width="32" height="32"/>
<rect class="tl hot" x="156" y="166" width="32" height="32"/>
<text class="lbl" x="172" y="179" text-anchor="middle">0</text>
<path class="ax" d="M165 188 L179 188"/>
<path class="ax" d="M179 188 L174.1 185.48"/>
<path class="ax" d="M179 188 L174.1 190.52"/>
<rect class="tl on" x="190" y="166" width="32" height="32"/>
<text class="lbl" x="206" y="179" text-anchor="middle">10</text>
<path class="ax" d="M213 188 L199 188"/>
<path class="ax" d="M199 188 L203.9 190.52"/>
<path class="ax" d="M199 188 L203.9 185.48"/>
<rect class="tl on" x="224" y="166" width="32" height="32"/>
<text class="lbl" x="240" y="179" text-anchor="middle">20</text>
<path class="ax" d="M247 188 L233 188"/>
<path class="ax" d="M233 188 L237.9 190.52"/>
<path class="ax" d="M233 188 L237.9 185.48"/>
<rect class="tl on" x="258" y="166" width="32" height="32"/>
<text class="lbl" x="274" y="179" text-anchor="middle">30</text>
<path class="ax" d="M281 188 L267 188"/>
<path class="ax" d="M267 188 L271.9 190.52"/>
<path class="ax" d="M267 188 L271.9 185.48"/>
<rect class="tl dim" x="292" y="166" width="32" height="32"/>
<rect class="tl none" x="326" y="166" width="32" height="32"/>
<rect class="tl dim" x="360" y="166" width="32" height="32"/>
<rect class="tl none" x="394" y="166" width="32" height="32"/>
<rect class="tl none" x="20" y="200" width="32" height="32"/>
<rect class="tl dim" x="54" y="200" width="32" height="32"/>
<rect class="tl none" x="88" y="200" width="32" height="32"/>
<rect class="tl dim" x="122" y="200" width="32" height="32"/>
<rect class="tl on" x="156" y="200" width="32" height="32"/>
<text class="lbl" x="172" y="213" text-anchor="middle">10</text>
<path class="ax" d="M172 229 L172 215"/>
<path class="ax" d="M172 215 L169.48 219.9"/>
<path class="ax" d="M172 215 L174.52 219.9"/>
<rect class="tl dim" x="190" y="200" width="32" height="32"/>
<rect class="tl dim" x="224" y="200" width="32" height="32"/>
<rect class="tl on" x="258" y="200" width="32" height="32"/>
<text class="lbl" x="274" y="213" text-anchor="middle">34</text>
<path class="ax" d="M281 229 L267 215"/>
<path class="ax" d="M267 215 L269.38 222.42"/>
<path class="ax" d="M267 215 L274.42 217.38"/>
<rect class="tl dim" x="292" y="200" width="32" height="32"/>
<rect class="tl none" x="326" y="200" width="32" height="32"/>
<rect class="tl dim" x="360" y="200" width="32" height="32"/>
<rect class="tl none" x="394" y="200" width="32" height="32"/>
<rect class="tl none" x="20" y="234" width="32" height="32"/>
<rect class="tl dim" x="54" y="234" width="32" height="32"/>
<rect class="tl none" x="88" y="234" width="32" height="32"/>
<rect class="tl dim" x="122" y="234" width="32" height="32"/>
<rect class="tl on" x="156" y="234" width="32" height="32"/>
<text class="lbl" x="172" y="247" text-anchor="middle">20</text>
<path class="ax" d="M172 263 L172 249"/>
<path class="ax" d="M172 249 L169.48 253.9"/>
<path class="ax" d="M172 249 L174.52 253.9"/>
<rect class="tl dim" x="190" y="234" width="32" height="32"/>
<rect class="tl dim" x="224" y="234" width="32" height="32"/>
<rect class="tl on" x="258" y="234" width="32" height="32"/>
<text class="lbl" x="274" y="247" text-anchor="middle">44</text>
<path class="ax" d="M274 263 L274 249"/>
<path class="ax" d="M274 249 L271.48 253.9"/>
<path class="ax" d="M274 249 L276.52 253.9"/>
<rect class="tl dim" x="292" y="234" width="32" height="32"/>
<rect class="tl none" x="326" y="234" width="32" height="32"/>
<rect class="tl dim" x="360" y="234" width="32" height="32"/>
<rect class="tl none" x="394" y="234" width="32" height="32"/>
<rect class="tl none" x="20" y="268" width="32" height="32"/>
<rect class="tl dim" x="54" y="268" width="32" height="32"/>
<rect class="tl none" x="88" y="268" width="32" height="32"/>
<rect class="tl dim" x="122" y="268" width="32" height="32"/>
<rect class="tl on" x="156" y="268" width="32" height="32"/>
<text class="lbl" x="172" y="281" text-anchor="middle">30</text>
<path class="ax" d="M172 297 L172 283"/>
<path class="ax" d="M172 283 L169.48 287.9"/>
<path class="ax" d="M172 283 L174.52 287.9"/>
<rect class="tl on" x="190" y="268" width="32" height="32"/>
<text class="lbl" x="206" y="281" text-anchor="middle">34</text>
<path class="ax" d="M213 297 L199 283"/>
<path class="ax" d="M199 283 L201.38 290.42"/>
<path class="ax" d="M199 283 L206.42 285.38"/>
<rect class="tl on" x="224" y="268" width="32" height="32"/>
<text class="lbl" x="240" y="281" text-anchor="middle">44</text>
<path class="ax" d="M247 290 L233 290"/>
<path class="ax" d="M233 290 L237.9 292.52"/>
<path class="ax" d="M233 290 L237.9 287.48"/>
<rect class="tl on" x="258" y="268" width="32" height="32"/>
<text class="lbl" x="274" y="281" text-anchor="middle">54</text>
<path class="ax" d="M274 297 L274 283"/>
<path class="ax" d="M274 283 L271.48 287.9"/>
<path class="ax" d="M274 283 L276.52 287.9"/>
<rect class="tl dim" x="292" y="268" width="32" height="32"/>
<rect class="tl none" x="326" y="268" width="32" height="32"/>
<rect class="tl dim" x="360" y="268" width="32" height="32"/>
<rect class="tl none" x="394" y="268" width="32" height="32"/>
<rect class="tl none" x="20" y="302" width="32" height="32"/>
<rect class="tl dim" x="54" y="302" width="32" height="32"/>
<rect class="tl none" x="88" y="302" width="32" height="32"/>
<rect class="tl dim" x="122" y="302" width="32" height="32"/>
<rect class="tl dim" x="156" y="302" width="32" height="32"/>
<rect class="tl dim" x="190" y="302" width="32" height="32"/>
<rect class="tl dim" x="224" y="302" width="32" height="32"/>
<rect class="tl dim" x="258" y="302" width="32" height="32"/>
<rect class="tl dim" x="292" y="302" width="32" height="32"/>
<rect class="tl none" x="326" y="302" width="32" height="32"/>
<rect class="tl dim" x="360" y="302" width="32" height="32"/>
<rect class="tl none" x="394" y="302" width="32" height="32"/>
<rect class="tl none" x="20" y="336" width="32" height="32"/>
<rect class="tl dim" x="54" y="336" width="32" height="32"/>
<rect class="tl none" x="88" y="336" width="32" height="32"/>
<rect class="tl none" x="122" y="336" width="32" height="32"/>
<rect class="tl none" x="156" y="336" width="32" height="32"/>
<rect class="tl none" x="190" y="336" width="32" height="32"/>
<rect class="tl none" x="224" y="336" width="32" height="32"/>
<rect class="tl none" x="258" y="336" width="32" height="32"/>
<rect class="tl none" x="292" y="336" width="32" height="32"/>
<rect class="tl none" x="326" y="336" width="32" height="32"/>
<rect class="tl dim" x="360" y="336" width="32" height="32"/>
<rect class="tl none" x="394" y="336" width="32" height="32"/>
<rect class="tl none" x="20" y="370" width="32" height="32"/>
<rect class="tl dim" x="54" y="370" width="32" height="32"/>
<rect class="tl dim" x="88" y="370" width="32" height="32"/>
<rect class="tl dim" x="122" y="370" width="32" height="32"/>
<rect class="tl dim" x="156" y="370" width="32" height="32"/>
<rect class="tl dim" x="190" y="370" width="32" height="32"/>
<rect class="tl dim" x="224" y="370" width="32" height="32"/>
<rect class="tl dim" x="258" y="370" width="32" height="32"/>
<rect class="tl dim" x="292" y="370" width="32" height="32"/>
<rect class="tl dim" x="326" y="370" width="32" height="32"/>
<rect class="tl dim" x="360" y="370" width="32" height="32"/>
<rect class="tl none" x="394" y="370" width="32" height="32"/>
<rect class="tl none" x="20" y="404" width="32" height="32"/>
<rect class="tl none" x="54" y="404" width="32" height="32"/>
<rect class="tl none" x="88" y="404" width="32" height="32"/>
<rect class="tl none" x="122" y="404" width="32" height="32"/>
<rect class="tl none" x="156" y="404" width="32" height="32"/>
<rect class="tl none" x="190" y="404" width="32" height="32"/>
<rect class="tl none" x="224" y="404" width="32" height="32"/>
<rect class="tl none" x="258" y="404" width="32" height="32"/>
<rect class="tl none" x="292" y="404" width="32" height="32"/>
<rect class="tl none" x="326" y="404" width="32" height="32"/>
<rect class="tl none" x="360" y="404" width="32" height="32"/>
<rect class="tl none" x="394" y="404" width="32" height="32"/>
<text x="20" y="20" text-anchor="start">숫자는 목표까지의 비용(10 직선 · 14 대각) · 화살표는 경사장</text>
</svg>
