<svg class="diag" viewBox="0 0 520 250" role="img" aria-label="브레젠험 직선의 오차항">
<title>브레젠험 직선의 오차항</title>
<defs><marker id="ah" markerWidth="9" markerHeight="9" refX="7.5" refY="3" orient="auto"><path d="M0,0 L8,3 L0,6 z" fill="#b04a2a"/></marker></defs>
<rect x="60.0" y="40.0" width="26.0" height="26.0" fill="none" stroke="#d6cdb8" stroke-width="0.8"/>
<rect x="86.0" y="40.0" width="26.0" height="26.0" fill="none" stroke="#d6cdb8" stroke-width="0.8"/>
<rect x="112.0" y="40.0" width="26.0" height="26.0" fill="none" stroke="#d6cdb8" stroke-width="0.8"/>
<rect x="138.0" y="40.0" width="26.0" height="26.0" fill="none" stroke="#d6cdb8" stroke-width="0.8"/>
<rect x="164.0" y="40.0" width="26.0" height="26.0" fill="none" stroke="#d6cdb8" stroke-width="0.8"/>
<rect x="190.0" y="40.0" width="26.0" height="26.0" fill="none" stroke="#d6cdb8" stroke-width="0.8"/>
<rect x="216.0" y="40.0" width="26.0" height="26.0" fill="none" stroke="#d6cdb8" stroke-width="0.8"/>
<rect x="242.0" y="40.0" width="26.0" height="26.0" fill="none" stroke="#d6cdb8" stroke-width="0.8"/>
<rect x="268.0" y="40.0" width="26.0" height="26.0" fill="none" stroke="#d6cdb8" stroke-width="0.8"/>
<rect x="294.0" y="40.0" width="26.0" height="26.0" fill="none" stroke="#d6cdb8" stroke-width="0.8"/>
<rect x="320.0" y="40.0" width="26.0" height="26.0" fill="none" stroke="#d6cdb8" stroke-width="0.8"/>
<rect x="60.0" y="66.0" width="26.0" height="26.0" fill="none" stroke="#d6cdb8" stroke-width="0.8"/>
<rect x="86.0" y="66.0" width="26.0" height="26.0" fill="none" stroke="#d6cdb8" stroke-width="0.8"/>
<rect x="112.0" y="66.0" width="26.0" height="26.0" fill="none" stroke="#d6cdb8" stroke-width="0.8"/>
<rect x="138.0" y="66.0" width="26.0" height="26.0" fill="none" stroke="#d6cdb8" stroke-width="0.8"/>
<rect x="164.0" y="66.0" width="26.0" height="26.0" fill="none" stroke="#d6cdb8" stroke-width="0.8"/>
<rect x="190.0" y="66.0" width="26.0" height="26.0" fill="none" stroke="#d6cdb8" stroke-width="0.8"/>
<rect x="216.0" y="66.0" width="26.0" height="26.0" fill="none" stroke="#d6cdb8" stroke-width="0.8"/>
<rect x="242.0" y="66.0" width="26.0" height="26.0" fill="none" stroke="#d6cdb8" stroke-width="0.8"/>
<rect x="268.0" y="66.0" width="26.0" height="26.0" fill="none" stroke="#d6cdb8" stroke-width="0.8"/>
<rect x="294.0" y="66.0" width="26.0" height="26.0" fill="none" stroke="#d6cdb8" stroke-width="0.8"/>
<rect x="320.0" y="66.0" width="26.0" height="26.0" fill="none" stroke="#d6cdb8" stroke-width="0.8"/>
<rect x="60.0" y="92.0" width="26.0" height="26.0" fill="none" stroke="#d6cdb8" stroke-width="0.8"/>
<rect x="86.0" y="92.0" width="26.0" height="26.0" fill="none" stroke="#d6cdb8" stroke-width="0.8"/>
<rect x="112.0" y="92.0" width="26.0" height="26.0" fill="none" stroke="#d6cdb8" stroke-width="0.8"/>
<rect x="138.0" y="92.0" width="26.0" height="26.0" fill="none" stroke="#d6cdb8" stroke-width="0.8"/>
<rect x="164.0" y="92.0" width="26.0" height="26.0" fill="none" stroke="#d6cdb8" stroke-width="0.8"/>
<rect x="190.0" y="92.0" width="26.0" height="26.0" fill="none" stroke="#d6cdb8" stroke-width="0.8"/>
<rect x="216.0" y="92.0" width="26.0" height="26.0" fill="none" stroke="#d6cdb8" stroke-width="0.8"/>
<rect x="242.0" y="92.0" width="26.0" height="26.0" fill="none" stroke="#d6cdb8" stroke-width="0.8"/>
<rect x="268.0" y="92.0" width="26.0" height="26.0" fill="none" stroke="#d6cdb8" stroke-width="0.8"/>
<rect x="294.0" y="92.0" width="26.0" height="26.0" fill="none" stroke="#d6cdb8" stroke-width="0.8"/>
<rect x="320.0" y="92.0" width="26.0" height="26.0" fill="none" stroke="#d6cdb8" stroke-width="0.8"/>
<rect x="60.0" y="118.0" width="26.0" height="26.0" fill="none" stroke="#d6cdb8" stroke-width="0.8"/>
<rect x="86.0" y="118.0" width="26.0" height="26.0" fill="none" stroke="#d6cdb8" stroke-width="0.8"/>
<rect x="112.0" y="118.0" width="26.0" height="26.0" fill="none" stroke="#d6cdb8" stroke-width="0.8"/>
<rect x="138.0" y="118.0" width="26.0" height="26.0" fill="none" stroke="#d6cdb8" stroke-width="0.8"/>
<rect x="164.0" y="118.0" width="26.0" height="26.0" fill="none" stroke="#d6cdb8" stroke-width="0.8"/>
<rect x="190.0" y="118.0" width="26.0" height="26.0" fill="none" stroke="#d6cdb8" stroke-width="0.8"/>
<rect x="216.0" y="118.0" width="26.0" height="26.0" fill="none" stroke="#d6cdb8" stroke-width="0.8"/>
<rect x="242.0" y="118.0" width="26.0" height="26.0" fill="none" stroke="#d6cdb8" stroke-width="0.8"/>
<rect x="268.0" y="118.0" width="26.0" height="26.0" fill="none" stroke="#d6cdb8" stroke-width="0.8"/>
<rect x="294.0" y="118.0" width="26.0" height="26.0" fill="none" stroke="#d6cdb8" stroke-width="0.8"/>
<rect x="320.0" y="118.0" width="26.0" height="26.0" fill="none" stroke="#d6cdb8" stroke-width="0.8"/>
<rect x="60.0" y="144.0" width="26.0" height="26.0" fill="none" stroke="#d6cdb8" stroke-width="0.8"/>
<rect x="86.0" y="144.0" width="26.0" height="26.0" fill="none" stroke="#d6cdb8" stroke-width="0.8"/>
<rect x="112.0" y="144.0" width="26.0" height="26.0" fill="none" stroke="#d6cdb8" stroke-width="0.8"/>
<rect x="138.0" y="144.0" width="26.0" height="26.0" fill="none" stroke="#d6cdb8" stroke-width="0.8"/>
<rect x="164.0" y="144.0" width="26.0" height="26.0" fill="none" stroke="#d6cdb8" stroke-width="0.8"/>
<rect x="190.0" y="144.0" width="26.0" height="26.0" fill="none" stroke="#d6cdb8" stroke-width="0.8"/>
<rect x="216.0" y="144.0" width="26.0" height="26.0" fill="none" stroke="#d6cdb8" stroke-width="0.8"/>
<rect x="242.0" y="144.0" width="26.0" height="26.0" fill="none" stroke="#d6cdb8" stroke-width="0.8"/>
<rect x="268.0" y="144.0" width="26.0" height="26.0" fill="none" stroke="#d6cdb8" stroke-width="0.8"/>
<rect x="294.0" y="144.0" width="26.0" height="26.0" fill="none" stroke="#d6cdb8" stroke-width="0.8"/>
<rect x="320.0" y="144.0" width="26.0" height="26.0" fill="none" stroke="#d6cdb8" stroke-width="0.8"/>
<rect x="60.0" y="170.0" width="26.0" height="26.0" fill="none" stroke="#d6cdb8" stroke-width="0.8"/>
<rect x="86.0" y="170.0" width="26.0" height="26.0" fill="none" stroke="#d6cdb8" stroke-width="0.8"/>
<rect x="112.0" y="170.0" width="26.0" height="26.0" fill="none" stroke="#d6cdb8" stroke-width="0.8"/>
<rect x="138.0" y="170.0" width="26.0" height="26.0" fill="none" stroke="#d6cdb8" stroke-width="0.8"/>
<rect x="164.0" y="170.0" width="26.0" height="26.0" fill="none" stroke="#d6cdb8" stroke-width="0.8"/>
<rect x="190.0" y="170.0" width="26.0" height="26.0" fill="none" stroke="#d6cdb8" stroke-width="0.8"/>
<rect x="216.0" y="170.0" width="26.0" height="26.0" fill="none" stroke="#d6cdb8" stroke-width="0.8"/>
<rect x="242.0" y="170.0" width="26.0" height="26.0" fill="none" stroke="#d6cdb8" stroke-width="0.8"/>
<rect x="268.0" y="170.0" width="26.0" height="26.0" fill="none" stroke="#d6cdb8" stroke-width="0.8"/>
<rect x="294.0" y="170.0" width="26.0" height="26.0" fill="none" stroke="#d6cdb8" stroke-width="0.8"/>
<rect x="320.0" y="170.0" width="26.0" height="26.0" fill="none" stroke="#d6cdb8" stroke-width="0.8"/>
<rect x="60.0" y="40.0" width="26.0" height="26.0" fill="#f4d98a" stroke="#8a5a2b" stroke-width="1.2"/>
<rect x="86.0" y="40.0" width="26.0" height="26.0" fill="#f4d98a" stroke="#8a5a2b" stroke-width="1.2"/>
<rect x="112.0" y="66.0" width="26.0" height="26.0" fill="#f4d98a" stroke="#8a5a2b" stroke-width="1.2"/>
<rect x="138.0" y="66.0" width="26.0" height="26.0" fill="#f4d98a" stroke="#8a5a2b" stroke-width="1.2"/>
<rect x="164.0" y="92.0" width="26.0" height="26.0" fill="#f4d98a" stroke="#8a5a2b" stroke-width="1.2"/>
<rect x="190.0" y="92.0" width="26.0" height="26.0" fill="#f4d98a" stroke="#8a5a2b" stroke-width="1.2"/>
<rect x="216.0" y="118.0" width="26.0" height="26.0" fill="#f4d98a" stroke="#8a5a2b" stroke-width="1.2"/>
<rect x="242.0" y="118.0" width="26.0" height="26.0" fill="#f4d98a" stroke="#8a5a2b" stroke-width="1.2"/>
<rect x="268.0" y="144.0" width="26.0" height="26.0" fill="#f4d98a" stroke="#8a5a2b" stroke-width="1.2"/>
<rect x="294.0" y="144.0" width="26.0" height="26.0" fill="#f4d98a" stroke="#8a5a2b" stroke-width="1.2"/>
<path class="ax" d="M 73.00 53.00 L 307.00 157.00"/>
<text x="203.0" y="211.6" text-anchor="middle">(0,0) → (9,4).  기울기 4/9 를 err = dx + dy 하나로 들고 다닌다</text>
<text x="203.0" y="229.8" text-anchor="middle" class="lbl">e2 = 2·err 가 dy 이상이면 x 를, dx 이하면 y 를 한 칸 — 나눗셈도 실수도 없다</text>
</svg>
