<svg class="diag" viewBox="0 0 340 204" xmlns="http://www.w3.org/2000/svg" role="img" aria-label="2부가 다루는 창: 1849–2004">
<style>
.diag text{font-family:-apple-system,"Noto Sans KR",sans-serif}
.frame{fill:none;stroke:var(--border,#c9d2da);stroke-width:1}
.ax{stroke:var(--muted,#5b6b7a);stroke-width:1;fill:none}
.grid{stroke:var(--border,#e1e7ec);stroke-width:.6;
 stroke-dasharray:2 3;fill:none}
svg.diag text.tick{font-size:8px;fill:var(--muted,#5b6b7a)}
svg.diag text.axname{font-size:9px;fill:var(--accent2,#1e293b);font-weight:700}
svg.diag text.key{font-size:9px;fill:var(--accent2,#1e293b);font-weight:700}
svg.diag text.cap{font-size:8.5px;fill:var(--muted,#5b6b7a)}
.cv{fill:none;stroke:var(--accent-ink,#0e7490);stroke-width:1.6}
.cv1{fill:none;stroke:var(--g1,#5c6b73);stroke-width:1.6}
.cv2{fill:none;stroke:var(--g2,#2f7a52);stroke-width:1.6}
.cv3{fill:none;stroke:var(--g3,#1d6fb8);stroke-width:1.6}
.cv4{fill:none;stroke:var(--g4,#7a4a8c);stroke-width:1.6}
.cv5{fill:none;stroke:var(--g5,#b5561b);stroke-width:1.6}
.cv6{fill:none;stroke:var(--g6,#a86b00);stroke-width:1.6}
.cv7{fill:none;stroke:var(--g7,#be185d);stroke-width:1.6}
.cv8{fill:none;stroke:var(--g8,#334155);stroke-width:1.6}
.dotg1{fill:var(--g1,#5c6b73)}.dotg2{fill:var(--g2,#2f7a52)}
.dotg3{fill:var(--g3,#1d6fb8)}.dotg4{fill:var(--g4,#7a4a8c)}
.dotg5{fill:var(--g5,#b5561b)}.dotg6{fill:var(--g6,#a86b00)}
.dotg7{fill:var(--g7,#be185d)}.dotg8{fill:var(--g8,#334155)}
.ring{fill:none;stroke:var(--accent-ink,#0e7490);stroke-width:1.2}
.cvd{fill:none;stroke:var(--muted,#5b6b7a);stroke-width:1.2;
 stroke-dasharray:4 3}
.dot{fill:var(--accent-ink,#0e7490);stroke:none}
.dot2{fill:var(--special-ink,#a16207);stroke:none}
.dot5{fill:var(--g5,#b5561b);stroke:none}
.dotn{fill:var(--muted,#5b6b7a);opacity:.35;stroke:none}
.cell{fill:var(--panel,#fff);stroke:var(--border,#c9d2da);
 stroke-width:1}
.cell.a{fill:rgba(34,211,238,.18)}
.cell.b{fill:rgba(184,50,42,.14)}
.cell.c{fill:rgba(46,158,91,.14)}
.cell.d{fill:rgba(217,119,6,.16)}
.cell.e{fill:rgba(245,158,11,.16)}
.cell.f{fill:rgba(91,107,122,.12)}
.cell.on{fill:var(--accent-ink,#0e7490);fill-opacity:.7}
.box{fill:var(--panel,#fafbfc);stroke:var(--border,#c9d2da);
 stroke-width:1.2}
.box.g1{stroke:var(--g1,#5c6b73);fill:rgba(92,107,115,.12)}
.box.g2{stroke:var(--g2,#2f7a52);fill:rgba(47,122,82,.12)}
.box.g3{stroke:var(--g3,#1d6fb8);fill:rgba(29,111,184,.12)}
.box.g4{stroke:var(--g4,#7a4a8c);fill:rgba(122,74,140,.12)}
.box.g5{stroke:var(--g5,#b5561b);fill:rgba(181,86,27,.12)}
.box.g6{stroke:var(--g6,#a86b00);fill:rgba(168,107,0,.12)}
.box.g7{stroke:var(--g7,#be185d);fill:rgba(190,24,93,.10)}
.box.g8{stroke:var(--g8,#334155);fill:rgba(51,65,85,.10)}
.box.off{fill:none;stroke-dasharray:3 2}
.arw{stroke:var(--net,#7d8a96);stroke-width:1.4;fill:none}
.arw.hot{stroke:var(--special-ink,#a16207);stroke-width:2.2}
svg.diag text.lbl{font-size:11px;fill:var(--muted,#5b6b7a)}
.diag text{fill:var(--text,#1c2530)}
.tie{stroke:var(--net,#7d8a96);stroke-width:1;fill:none}
.tie.hot{stroke:var(--special-ink,#a16207);stroke-width:1.6}
.edge{stroke:var(--net,#7d8a96);stroke-width:1.3;fill:none}
.edge.hot{stroke:var(--special-ink,#a16207);stroke-width:1.8}
.edge.dim{stroke-dasharray:3 2;opacity:.6}
.ah{fill:var(--net,#7d8a96);stroke:none}
.ah.hot{fill:var(--special-ink,#a16207)}
.bar{fill:var(--g2,#2f7a52);opacity:.8;stroke:none}
.bar.a{fill:var(--accent-ink,#0e7490)}
svg.diag text.mono{font-family:"DeckMono","D2Coding",ui-monospace,
 monospace;font-size:8.5px}
svg.diag text.hot{fill:var(--special-ink,#a16207);font-weight:700;
 font-size:9.5px}
</style>
<rect x="78.00" y="20.00" width="105.33" height="140.00" class="cell a"/>
<line x1="78.00" y1="32.50" x2="330.00" y2="32.50" class="grid"/>
<circle cx="78.25" cy="32.50" r="2.00" class="dotg1"/>
<circle cx="78.30" cy="32.50" r="2.00" class="dotg1"/>
<circle cx="107.56" cy="32.50" r="2.00" class="dotg1"/>
<circle cx="110.50" cy="32.50" r="2.00" class="dotg1"/>
<circle cx="110.74" cy="32.50" r="2.00" class="dotg1"/>
<circle cx="110.90" cy="32.50" r="2.00" class="dotg1"/>
<circle cx="111.02" cy="32.50" r="2.00" class="dotg1"/>
<circle cx="111.26" cy="32.50" r="2.00" class="dotg1"/>
<circle cx="119.01" cy="32.50" r="2.00" class="dotg1"/>
<circle cx="119.01" cy="32.50" r="2.00" class="dotg1"/>
<circle cx="122.06" cy="32.50" r="2.00" class="dotg1"/>
<circle cx="123.51" cy="32.50" r="2.00" class="dotg1"/>
<circle cx="123.77" cy="32.50" r="2.00" class="dotg1"/>
<circle cx="124.54" cy="32.50" r="2.00" class="dotg1"/>
<circle cx="127.79" cy="32.50" r="2.00" class="dotg1"/>
<circle cx="131.08" cy="32.50" r="2.00" class="dotg1"/>
<circle cx="134.46" cy="32.50" r="2.00" class="dotg1"/>
<circle cx="141.42" cy="32.50" r="2.00" class="dotg1"/>
<circle cx="141.89" cy="32.50" r="2.00" class="dotg1"/>
<circle cx="142.37" cy="32.50" r="2.00" class="dotg1"/>
<circle cx="143.52" cy="32.50" r="2.00" class="dotg1"/>
<circle cx="147.38" cy="32.50" r="2.00" class="dotg1"/>
<circle cx="147.62" cy="32.50" r="2.00" class="dotg1"/>
<circle cx="149.12" cy="32.50" r="2.00" class="dotg1"/>
<circle cx="156.67" cy="32.50" r="2.00" class="dotg1"/>
<circle cx="163.33" cy="32.50" r="2.00" class="dotg1"/>
<circle cx="165.53" cy="32.50" r="2.00" class="dotg1"/>
<circle cx="223.33" cy="32.50" r="2.00" class="dotg1"/>
<circle cx="230.00" cy="32.50" r="2.00" class="dotg1"/>
<text x="74.00" y="35.50" class="tick" text-anchor="end">군용 29</text>
<line x1="78.00" y1="49.50" x2="330.00" y2="49.50" class="grid"/>
<circle cx="101.36" cy="49.50" r="2.00" class="dotg2"/>
<circle cx="101.60" cy="49.50" r="2.00" class="dotg2"/>
<circle cx="101.77" cy="49.50" r="2.00" class="dotg2"/>
<circle cx="101.84" cy="49.50" r="2.00" class="dotg2"/>
<circle cx="119.48" cy="49.50" r="2.00" class="dotg2"/>
<circle cx="120.44" cy="49.50" r="2.00" class="dotg2"/>
<circle cx="120.44" cy="49.50" r="2.00" class="dotg2"/>
<circle cx="121.39" cy="49.50" r="2.00" class="dotg2"/>
<circle cx="124.33" cy="49.50" r="2.00" class="dotg2"/>
<circle cx="125.68" cy="49.50" r="2.00" class="dotg2"/>
<circle cx="127.11" cy="49.50" r="2.00" class="dotg2"/>
<circle cx="128.07" cy="49.50" r="2.00" class="dotg2"/>
<circle cx="129.02" cy="49.50" r="2.00" class="dotg2"/>
<circle cx="130.93" cy="49.50" r="2.00" class="dotg2"/>
<circle cx="131.88" cy="49.50" r="2.00" class="dotg2"/>
<circle cx="133.31" cy="49.50" r="2.00" class="dotg2"/>
<circle cx="135.22" cy="49.50" r="2.00" class="dotg2"/>
<circle cx="138.56" cy="49.50" r="2.00" class="dotg2"/>
<circle cx="141.42" cy="49.50" r="2.00" class="dotg2"/>
<circle cx="144.28" cy="49.50" r="2.00" class="dotg2"/>
<circle cx="176.67" cy="49.50" r="2.00" class="dotg2"/>
<circle cx="198.86" cy="49.50" r="2.00" class="dotg2"/>
<circle cx="223.33" cy="49.50" r="2.00" class="dotg2"/>
<text x="74.00" y="52.50" class="tick" text-anchor="end">RC 취미 23</text>
<line x1="78.00" y1="66.50" x2="330.00" y2="66.50" class="grid"/>
<circle cx="106.01" cy="66.50" r="2.00" class="dotg3"/>
<circle cx="113.27" cy="66.50" r="2.00" class="dotg3"/>
<circle cx="129.10" cy="66.50" r="2.00" class="dotg3"/>
<circle cx="133.89" cy="66.50" r="2.00" class="dotg3"/>
<circle cx="170.00" cy="66.50" r="2.00" class="dotg3"/>
<circle cx="203.33" cy="66.50" r="2.00" class="dotg3"/>
<circle cx="210.00" cy="66.50" r="2.00" class="dotg3"/>
<circle cx="210.00" cy="66.50" r="2.00" class="dotg3"/>
<circle cx="212.19" cy="66.50" r="2.00" class="dotg3"/>
<circle cx="215.55" cy="66.50" r="2.00" class="dotg3"/>
<circle cx="216.67" cy="66.50" r="2.00" class="dotg3"/>
<circle cx="218.86" cy="66.50" r="2.00" class="dotg3"/>
<circle cx="223.33" cy="66.50" r="2.00" class="dotg3"/>
<circle cx="233.66" cy="66.50" r="2.00" class="dotg3"/>
<circle cx="233.93" cy="66.50" r="2.00" class="dotg3"/>
<circle cx="236.67" cy="66.50" r="2.00" class="dotg3"/>
<circle cx="236.81" cy="66.50" r="2.00" class="dotg3"/>
<circle cx="244.41" cy="66.50" r="2.00" class="dotg3"/>
<circle cx="247.77" cy="66.50" r="2.00" class="dotg3"/>
<circle cx="252.19" cy="66.50" r="2.00" class="dotg3"/>
<circle cx="257.76" cy="66.50" r="2.00" class="dotg3"/>
<circle cx="261.11" cy="66.50" r="2.00" class="dotg3"/>
<circle cx="278.35" cy="66.50" r="2.00" class="dotg3"/>
<text x="74.00" y="69.50" class="tick" text-anchor="end">멀티로터·FC 23</text>
<line x1="78.00" y1="83.50" x2="330.00" y2="83.50" class="grid"/>
<circle cx="143.80" cy="83.50" r="2.00" class="dotg4"/>
<circle cx="145.71" cy="83.50" r="2.00" class="dotg4"/>
<circle cx="146.19" cy="83.50" r="2.00" class="dotg4"/>
<circle cx="148.93" cy="83.50" r="2.00" class="dotg4"/>
<circle cx="149.52" cy="83.50" r="2.00" class="dotg4"/>
<circle cx="171.64" cy="83.50" r="2.00" class="dotg4"/>
<circle cx="196.81" cy="83.50" r="2.00" class="dotg4"/>
<circle cx="216.67" cy="83.50" r="2.00" class="dotg4"/>
<circle cx="230.13" cy="83.50" r="2.00" class="dotg4"/>
<circle cx="230.82" cy="83.50" r="2.00" class="dotg4"/>
<circle cx="236.78" cy="83.50" r="2.00" class="dotg4"/>
<circle cx="243.04" cy="83.50" r="2.00" class="dotg4"/>
<circle cx="245.74" cy="83.50" r="2.00" class="dotg4"/>
<circle cx="249.00" cy="83.50" r="2.00" class="dotg4"/>
<circle cx="249.11" cy="83.50" r="2.00" class="dotg4"/>
<circle cx="251.64" cy="83.50" r="2.00" class="dotg4"/>
<circle cx="251.77" cy="83.50" r="2.00" class="dotg4"/>
<circle cx="255.90" cy="83.50" r="2.00" class="dotg4"/>
<circle cx="256.03" cy="83.50" r="2.00" class="dotg4"/>
<circle cx="256.76" cy="83.50" r="2.00" class="dotg4"/>
<circle cx="257.78" cy="83.50" r="2.00" class="dotg4"/>
<circle cx="261.60" cy="83.50" r="2.00" class="dotg4"/>
<circle cx="262.48" cy="83.50" r="2.00" class="dotg4"/>
<circle cx="263.48" cy="83.50" r="2.00" class="dotg4"/>
<circle cx="264.36" cy="83.50" r="2.00" class="dotg4"/>
<circle cx="266.35" cy="83.50" r="2.00" class="dotg4"/>
<circle cx="274.27" cy="83.50" r="2.00" class="dotg4"/>
<circle cx="275.24" cy="83.50" r="2.00" class="dotg4"/>
<circle cx="281.54" cy="83.50" r="2.00" class="dotg4"/>
<circle cx="282.18" cy="83.50" r="2.00" class="dotg4"/>
<circle cx="285.48" cy="83.50" r="2.00" class="dotg4"/>
<circle cx="288.96" cy="83.50" r="2.00" class="dotg4"/>
<circle cx="289.11" cy="83.50" r="2.00" class="dotg4"/>
<circle cx="291.90" cy="83.50" r="2.00" class="dotg4"/>
<circle cx="295.63" cy="83.50" r="2.00" class="dotg4"/>
<circle cx="299.02" cy="83.50" r="2.00" class="dotg4"/>
<circle cx="305.20" cy="83.50" r="2.00" class="dotg4"/>
<circle cx="305.84" cy="83.50" r="2.00" class="dotg4"/>
<circle cx="308.21" cy="83.50" r="2.00" class="dotg4"/>
<circle cx="315.25" cy="83.50" r="2.00" class="dotg4"/>
<circle cx="316.90" cy="83.50" r="2.00" class="dotg4"/>
<circle cx="319.08" cy="83.50" r="2.00" class="dotg4"/>
<circle cx="321.63" cy="83.50" r="2.00" class="dotg4"/>
<text x="74.00" y="86.50" class="tick" text-anchor="end">소비자 43</text>
<line x1="78.00" y1="100.50" x2="330.00" y2="100.50" class="grid"/>
<circle cx="250.00" cy="100.50" r="2.00" class="dotg5"/>
<circle cx="252.89" cy="100.50" r="2.00" class="dotg5"/>
<circle cx="255.50" cy="100.50" r="2.00" class="dotg5"/>
<circle cx="257.07" cy="100.50" r="2.00" class="dotg5"/>
<circle cx="257.76" cy="100.50" r="2.00" class="dotg5"/>
<circle cx="280.52" cy="100.50" r="2.00" class="dotg5"/>
<circle cx="291.10" cy="100.50" r="2.00" class="dotg5"/>
<circle cx="300.98" cy="100.50" r="2.00" class="dotg5"/>
<circle cx="311.84" cy="100.50" r="2.00" class="dotg5"/>
<text x="74.00" y="103.50" class="tick" text-anchor="end">레이싱 9</text>
<line x1="78.00" y1="117.50" x2="330.00" y2="117.50" class="grid"/>
<circle cx="253.60" cy="117.50" r="2.00" class="dotg6"/>
<circle cx="256.67" cy="117.50" r="2.00" class="dotg6"/>
<circle cx="257.92" cy="117.50" r="2.00" class="dotg6"/>
<circle cx="258.87" cy="117.50" r="2.00" class="dotg6"/>
<circle cx="262.77" cy="117.50" r="2.00" class="dotg6"/>
<circle cx="278.44" cy="117.50" r="2.00" class="dotg6"/>
<circle cx="278.71" cy="117.50" r="2.00" class="dotg6"/>
<circle cx="280.76" cy="117.50" r="2.00" class="dotg6"/>
<circle cx="281.11" cy="117.50" r="2.00" class="dotg6"/>
<circle cx="281.96" cy="117.50" r="2.00" class="dotg6"/>
<circle cx="283.33" cy="117.50" r="2.00" class="dotg6"/>
<circle cx="299.64" cy="117.50" r="2.00" class="dotg6"/>
<circle cx="308.63" cy="117.50" r="2.00" class="dotg6"/>
<circle cx="310.16" cy="117.50" r="2.00" class="dotg6"/>
<circle cx="322.82" cy="117.50" r="2.00" class="dotg6"/>
<circle cx="323.95" cy="117.50" r="2.00" class="dotg6"/>
<text x="74.00" y="120.50" class="tick" text-anchor="end">배송·산업 16</text>
<line x1="78.00" y1="134.50" x2="330.00" y2="134.50" class="grid"/>
<circle cx="234.44" cy="134.50" r="2.00" class="dotg7"/>
<circle cx="255.55" cy="134.50" r="2.00" class="dotg7"/>
<circle cx="256.76" cy="134.50" r="2.00" class="dotg7"/>
<circle cx="262.22" cy="134.50" r="2.00" class="dotg7"/>
<circle cx="262.50" cy="134.50" r="2.00" class="dotg7"/>
<circle cx="263.97" cy="134.50" r="2.00" class="dotg7"/>
<circle cx="264.08" cy="134.50" r="2.00" class="dotg7"/>
<circle cx="269.43" cy="134.50" r="2.00" class="dotg7"/>
<circle cx="270.71" cy="134.50" r="2.00" class="dotg7"/>
<circle cx="272.16" cy="134.50" r="2.00" class="dotg7"/>
<circle cx="273.56" cy="134.50" r="2.00" class="dotg7"/>
<circle cx="276.67" cy="134.50" r="2.00" class="dotg7"/>
<circle cx="276.70" cy="134.50" r="2.00" class="dotg7"/>
<circle cx="277.27" cy="134.50" r="2.00" class="dotg7"/>
<circle cx="281.95" cy="134.50" r="2.00" class="dotg7"/>
<circle cx="283.33" cy="134.50" r="2.00" class="dotg7"/>
<circle cx="287.81" cy="134.50" r="2.00" class="dotg7"/>
<circle cx="288.12" cy="134.50" r="2.00" class="dotg7"/>
<circle cx="291.59" cy="134.50" r="2.00" class="dotg7"/>
<circle cx="292.50" cy="134.50" r="2.00" class="dotg7"/>
<circle cx="293.71" cy="134.50" r="2.00" class="dotg7"/>
<circle cx="296.67" cy="134.50" r="2.00" class="dotg7"/>
<circle cx="299.48" cy="134.50" r="2.00" class="dotg7"/>
<circle cx="306.68" cy="134.50" r="2.00" class="dotg7"/>
<circle cx="309.73" cy="134.50" r="2.00" class="dotg7"/>
<circle cx="312.08" cy="134.50" r="2.00" class="dotg7"/>
<circle cx="312.20" cy="134.50" r="2.00" class="dotg7"/>
<circle cx="313.32" cy="134.50" r="2.00" class="dotg7"/>
<circle cx="314.48" cy="134.50" r="2.00" class="dotg7"/>
<circle cx="314.50" cy="134.50" r="2.00" class="dotg7"/>
<circle cx="314.90" cy="134.50" r="2.00" class="dotg7"/>
<circle cx="314.94" cy="134.50" r="2.00" class="dotg7"/>
<circle cx="315.37" cy="134.50" r="2.00" class="dotg7"/>
<circle cx="316.03" cy="134.50" r="2.00" class="dotg7"/>
<circle cx="316.45" cy="134.50" r="2.00" class="dotg7"/>
<circle cx="318.84" cy="134.50" r="2.00" class="dotg7"/>
<circle cx="319.70" cy="134.50" r="2.00" class="dotg7"/>
<circle cx="320.12" cy="134.50" r="2.00" class="dotg7"/>
<circle cx="320.54" cy="134.50" r="2.00" class="dotg7"/>
<circle cx="323.26" cy="134.50" r="2.00" class="dotg7"/>
<circle cx="323.94" cy="134.50" r="2.00" class="dotg7"/>
<circle cx="324.25" cy="134.50" r="2.00" class="dotg7"/>
<circle cx="324.96" cy="134.50" r="2.00" class="dotg7"/>
<circle cx="325.87" cy="134.50" r="2.00" class="dotg7"/>
<circle cx="326.29" cy="134.50" r="2.00" class="dotg7"/>
<text x="74.00" y="137.50" class="tick" text-anchor="end">드론쇼 45</text>
<line x1="78.00" y1="151.50" x2="330.00" y2="151.50" class="grid"/>
<circle cx="188.26" cy="151.50" r="2.00" class="dotg8"/>
<circle cx="240.43" cy="151.50" r="2.00" class="dotg8"/>
<circle cx="241.31" cy="151.50" r="2.00" class="dotg8"/>
<circle cx="242.33" cy="151.50" r="2.00" class="dotg8"/>
<circle cx="245.34" cy="151.50" r="2.00" class="dotg8"/>
<circle cx="246.26" cy="151.50" r="2.00" class="dotg8"/>
<circle cx="246.55" cy="151.50" r="2.00" class="dotg8"/>
<circle cx="249.82" cy="151.50" r="2.00" class="dotg8"/>
<circle cx="250.46" cy="151.50" r="2.00" class="dotg8"/>
<circle cx="250.82" cy="151.50" r="2.00" class="dotg8"/>
<circle cx="256.34" cy="151.50" r="2.00" class="dotg8"/>
<circle cx="257.05" cy="151.50" r="2.00" class="dotg8"/>
<circle cx="259.80" cy="151.50" r="2.00" class="dotg8"/>
<circle cx="261.06" cy="151.50" r="2.00" class="dotg8"/>
<circle cx="264.94" cy="151.50" r="2.00" class="dotg8"/>
<circle cx="268.14" cy="151.50" r="2.00" class="dotg8"/>
<circle cx="268.76" cy="151.50" r="2.00" class="dotg8"/>
<circle cx="269.05" cy="151.50" r="2.00" class="dotg8"/>
<circle cx="269.18" cy="151.50" r="2.00" class="dotg8"/>
<circle cx="269.63" cy="151.50" r="2.00" class="dotg8"/>
<circle cx="275.06" cy="151.50" r="2.00" class="dotg8"/>
<circle cx="277.67" cy="151.50" r="2.00" class="dotg8"/>
<circle cx="278.84" cy="151.50" r="2.00" class="dotg8"/>
<circle cx="279.13" cy="151.50" r="2.00" class="dotg8"/>
<circle cx="279.28" cy="151.50" r="2.00" class="dotg8"/>
<circle cx="285.54" cy="151.50" r="2.00" class="dotg8"/>
<circle cx="289.98" cy="151.50" r="2.00" class="dotg8"/>
<circle cx="290.00" cy="151.50" r="2.00" class="dotg8"/>
<circle cx="290.26" cy="151.50" r="2.00" class="dotg8"/>
<circle cx="292.01" cy="151.50" r="2.00" class="dotg8"/>
<circle cx="300.85" cy="151.50" r="2.00" class="dotg8"/>
<circle cx="301.38" cy="151.50" r="2.00" class="dotg8"/>
<circle cx="308.05" cy="151.50" r="2.00" class="dotg8"/>
<circle cx="310.00" cy="151.50" r="2.00" class="dotg8"/>
<circle cx="323.15" cy="151.50" r="2.00" class="dotg8"/>
<circle cx="326.13" cy="151.50" r="2.00" class="dotg8"/>
<circle cx="328.06" cy="151.50" r="2.00" class="dotg8"/>
<text x="74.00" y="154.50" class="tick" text-anchor="end">규제 37</text>
<line x1="78.00" y1="160.00" x2="330.00" y2="160.00" class="ax"/>
<line x1="78.48" y1="160.00" x2="78.48" y2="163.00" class="ax"/>
<text x="78.48" y="172.00" class="tick" text-anchor="middle">1850</text>
<line x1="102.32" y1="160.00" x2="102.32" y2="163.00" class="ax"/>
<text x="102.32" y="172.00" class="tick" text-anchor="middle">1900</text>
<line x1="126.16" y1="160.00" x2="126.16" y2="163.00" class="ax"/>
<text x="126.16" y="172.00" class="tick" text-anchor="middle">1950</text>
<line x1="150.00" y1="160.00" x2="150.00" y2="163.00" class="ax"/>
<text x="150.00" y="172.00" class="tick" text-anchor="middle">2000</text>
<line x1="216.67" y1="160.00" x2="216.67" y2="163.00" class="ax"/>
<text x="216.67" y="172.00" class="tick" text-anchor="middle">2010</text>
<line x1="283.33" y1="160.00" x2="283.33" y2="163.00" class="ax"/>
<text x="283.33" y="172.00" class="tick" text-anchor="middle">2020</text>
<line x1="146.00" y1="164.00" x2="150.00" y2="156.00" class="ax"/>
<line x1="150.00" y1="164.00" x2="154.00" y2="156.00" class="ax"/>
<text x="170.00" y="186.00" class="cap" text-anchor="middle">점 하나 = data/timeline.tsv 한 행 (225행)</text>
<text x="170.00" y="198.00" class="cap" text-anchor="middle">2000 년에서 눈금이 바뀐다 — 왼쪽 150년, 오른쪽 27년</text>
</svg>
