<svg class="diag" viewBox="0 0 340 160" role="img" aria-label="비트가 바이트에 채워지는 순서">
<text x="10" y="16" style="font-size:11px;">쓴 값:  3(2비트)  1(1비트)  5(3비트)  0(4비트)</text>
<rect x="14" y="30" width="17" height="22" class="box"/>
<text x="22.5" y="45" style="font-family:ui-monospace,DeckMono,monospace;font-size:11px;" text-anchor="middle">1</text>
<rect x="33" y="30" width="17" height="22" class="box"/>
<text x="41.5" y="45" style="font-family:ui-monospace,DeckMono,monospace;font-size:11px;" text-anchor="middle">1</text>
<rect x="52" y="30" width="17" height="22" class="box"/>
<text x="60.5" y="45" style="font-family:ui-monospace,DeckMono,monospace;font-size:11px;" text-anchor="middle">1</text>
<rect x="71" y="30" width="17" height="22" class="box"/>
<text x="79.5" y="45" style="font-family:ui-monospace,DeckMono,monospace;font-size:11px;" text-anchor="middle">1</text>
<rect x="90" y="30" width="17" height="22" class="box"/>
<text x="98.5" y="45" style="font-family:ui-monospace,DeckMono,monospace;font-size:11px;" text-anchor="middle">0</text>
<rect x="109" y="30" width="17" height="22" class="box"/>
<text x="117.5" y="45" style="font-family:ui-monospace,DeckMono,monospace;font-size:11px;" text-anchor="middle">1</text>
<rect x="128" y="30" width="17" height="22" class="box"/>
<text x="136.5" y="45" style="font-family:ui-monospace,DeckMono,monospace;font-size:11px;" text-anchor="middle">0</text>
<rect x="147" y="30" width="17" height="22" class="box"/>
<text x="155.5" y="45" style="font-family:ui-monospace,DeckMono,monospace;font-size:11px;" text-anchor="middle">0</text>
<rect x="166" y="30" width="17" height="22" class="box"/>
<text x="174.5" y="45" style="font-family:ui-monospace,DeckMono,monospace;font-size:11px;" text-anchor="middle">0</text>
<rect x="185" y="30" width="17" height="22" class="box"/>
<text x="193.5" y="45" style="font-family:ui-monospace,DeckMono,monospace;font-size:11px;" text-anchor="middle">0</text>
<rect x="204" y="30" width="17" height="22" class="box off"/>
<text x="212.5" y="45" style="font-family:ui-monospace,DeckMono,monospace;font-size:11px;" text-anchor="middle">0</text>
<rect x="223" y="30" width="17" height="22" class="box off"/>
<text x="231.5" y="45" style="font-family:ui-monospace,DeckMono,monospace;font-size:11px;" text-anchor="middle">0</text>
<rect x="242" y="30" width="17" height="22" class="box off"/>
<text x="250.5" y="45" style="font-family:ui-monospace,DeckMono,monospace;font-size:11px;" text-anchor="middle">0</text>
<rect x="261" y="30" width="17" height="22" class="box off"/>
<text x="269.5" y="45" style="font-family:ui-monospace,DeckMono,monospace;font-size:11px;" text-anchor="middle">0</text>
<rect x="280" y="30" width="17" height="22" class="box off"/>
<text x="288.5" y="45" style="font-family:ui-monospace,DeckMono,monospace;font-size:11px;" text-anchor="middle">0</text>
<rect x="299" y="30" width="17" height="22" class="box off"/>
<text x="307.5" y="45" style="font-family:ui-monospace,DeckMono,monospace;font-size:11px;" text-anchor="middle">0</text>
<line x1="14" y1="56" x2="50" y2="56" stroke="var(--accent)" stroke-width="1.6"/>
<text x="32" y="68" style="font-family:ui-monospace,DeckMono,monospace;font-size:11px;fill:var(--accent);" text-anchor="middle">3</text>
<line x1="52" y1="56" x2="69" y2="56" stroke="var(--accent)" stroke-width="1.6"/>
<text x="60.5" y="68" style="font-family:ui-monospace,DeckMono,monospace;font-size:11px;fill:var(--accent);" text-anchor="middle">1</text>
<line x1="71" y1="56" x2="126" y2="56" stroke="var(--accent)" stroke-width="1.6"/>
<text x="98.5" y="68" style="font-family:ui-monospace,DeckMono,monospace;font-size:11px;fill:var(--accent);" text-anchor="middle">5</text>
<line x1="128" y1="56" x2="202" y2="56" stroke="var(--accent)" stroke-width="1.6"/>
<text x="165" y="68" style="font-family:ui-monospace,DeckMono,monospace;font-size:11px;fill:var(--accent);" text-anchor="middle">0</text>
<line x1="165" y1="26" x2="165" y2="56" stroke="var(--special)" stroke-width="1.6"/>
<text x="90" y="104" class="lbl" text-anchor="middle">첫 바이트</text>
<text x="242" y="104" class="lbl" text-anchor="middle">둘째 바이트</text>
<text x="10" y="130" style="font-size:11px;">채우고 남은 자리는 0 — 그래서 빈 입력도</text>
<text x="10" y="146" style="font-size:11px;">바이트 하나가 나온다 (SPEC §0.3 의 예외).</text>
</svg>
