<svg class="diag" viewBox="0 0 340 192" role="img" aria-label="jpeglite 의 단계">
<defs><marker id="ah" viewBox="0 0 10 10" refX="9" refY="5" markerWidth="6" markerHeight="6" orient="auto-start-reverse"><path d="M0,0 L10,5 L0,10 z"/></marker></defs>
<rect x="10" y="22" width="130" height="24" class="box"/>
<text x="75" y="38" text-anchor="middle" style="font-size:11px;">8×8 자르기</text>
<text x="150" y="38" style="font-size:11px;fill:var(--muted);">무손실</text>
<path d="M75,48 L75,52" class="arw"/>
<rect x="10" y="52" width="130" height="24" class="box"/>
<text x="75" y="68" text-anchor="middle" style="font-size:11px;">정수 DCT</text>
<text x="150" y="68" style="font-size:11px;fill:var(--muted);">무손실</text>
<path d="M75,78 L75,82" class="arw"/>
<rect x="10" y="82" width="130" height="24" class="box"/>
<text x="75" y="98" text-anchor="middle" style="font-size:11px;">양자화</text>
<text x="150" y="98" style="font-size:11px;fill:var(--bad);">여기서 버린다</text>
<path d="M75,108 L75,112" class="arw"/>
<rect x="10" y="112" width="130" height="24" class="box"/>
<text x="75" y="128" text-anchor="middle" style="font-size:11px;">지그재그+런</text>
<text x="150" y="128" style="font-size:11px;fill:var(--muted);">무손실</text>
<path d="M75,138 L75,142" class="arw"/>
<rect x="10" y="142" width="130" height="24" class="box"/>
<text x="75" y="158" text-anchor="middle" style="font-size:11px;">허프만</text>
<text x="150" y="158" style="font-size:11px;fill:var(--muted);">무손실</text>
<text x="10" y="188" class="lbl">DCT 는 되돌아간다. 못 되돌리는 것은 나눗셈뿐</text>
</svg>
