<svg class="diag" viewBox="0 0 340 200" xmlns="http://www.w3.org/2000/svg" role="img" aria-label="내적의 분산과 √d">
<style>
.diag text{font-family:-apple-system,"Noto Sans KR",sans-serif}
.frame{fill:none;stroke:var(--border,#dcc7a6);stroke-width:1}
.ax{stroke:var(--muted,#7a6450);stroke-width:1;fill:none}
.grid{stroke:var(--border,#e8dcc4);stroke-width:.6;
 stroke-dasharray:2 3;fill:none}
.tick{font-size:8px;fill:var(--muted,#7a6450)}
.axname{font-size:9px;fill:var(--accent2,#3d2413);font-weight:700}
.key{font-size:9px;fill:var(--accent2,#3d2413);font-weight:700}
.cap{font-size:8.5px;fill:var(--muted,#7a6450)}
.cv{fill:none;stroke:var(--accent,#8a3b12);stroke-width:1.6}
.cv1{fill:none;stroke:var(--g1,#9a6a2f);stroke-width:1.6}
.cv2{fill:none;stroke:var(--g2,#25507f);stroke-width:1.6}
.cv3{fill:none;stroke:var(--g3,#2f7a52);stroke-width:1.6}
.cv4{fill:none;stroke:var(--g4,#7a4a8c);stroke-width:1.6}
.cv5{fill:none;stroke:var(--g5,#b8322a);stroke-width:1.6}
.cv6{fill:none;stroke:var(--g6,#5c6b73);stroke-width:1.6}
.cvd{fill:none;stroke:var(--muted,#7a6450);stroke-width:1.2;
 stroke-dasharray:4 3}
.dot{fill:var(--accent,#8a3b12);stroke:none}
.dot2{fill:var(--special,#25507f);stroke:none}
.dot5{fill:var(--g5,#b8322a);stroke:none}
.dotn{fill:var(--muted,#7a6450);opacity:.35;stroke:none}
.cell{fill:var(--panel,#fff);stroke:var(--border,#dcc7a6);
 stroke-width:1}
.cell.a{fill:rgba(138,59,18,.16)}
.cell.b{fill:rgba(184,50,42,.14)}
.cell.c{fill:rgba(46,158,91,.14)}
.cell.d{fill:rgba(217,119,6,.16)}
.cell.e{fill:rgba(37,80,127,.14)}
.cell.f{fill:rgba(122,100,80,.12)}
.box{fill:var(--panel,#fffcf4);stroke:var(--border,#dcc7a6);
 stroke-width:1.2}
.box.g1{stroke:var(--g1,#9a6a2f);fill:rgba(154,106,47,.12)}
.box.g2{stroke:var(--g2,#25507f);fill:rgba(37,80,127,.12)}
.box.g3{stroke:var(--g3,#2f7a52);fill:rgba(47,122,82,.12)}
.box.g4{stroke:var(--g4,#7a4a8c);fill:rgba(122,74,140,.12)}
.box.g5{stroke:var(--g5,#b8322a);fill:rgba(184,50,42,.12)}
.box.g6{stroke:var(--g6,#5c6b73);fill:rgba(92,107,115,.12)}
.box.off{fill:none;stroke-dasharray:3 2}
.arw{stroke:var(--net,#8a7d70);stroke-width:1.4;fill:none}
.arw.hot{stroke:var(--special,#25507f);stroke-width:2.2}
.lbl{font-size:11px;fill:var(--muted,#7a6450)}
.diag text{fill:var(--text,#2a1f16)}
.tie{stroke:var(--net,#8a7d70);stroke-width:1;fill:none}
.tie.hot{stroke:var(--special,#25507f);stroke-width:1.6}
</style>
<rect x="42.00" y="12.00" width="270.00" height="150.00" class="frame"/>
<line x1="58.87" y1="12.00" x2="58.87" y2="162.00" class="grid"/>
<line x1="140.14" y1="12.00" x2="140.14" y2="162.00" class="grid"/>
<line x1="221.42" y1="12.00" x2="221.42" y2="162.00" class="grid"/>
<line x1="302.70" y1="12.00" x2="302.70" y2="162.00" class="grid"/>
<line x1="42.00" y1="146.45" x2="312.00" y2="146.45" class="grid"/>
<line x1="42.00" y1="94.78" x2="312.00" y2="94.78" class="grid"/>
<line x1="42.00" y1="43.11" x2="312.00" y2="43.11" class="grid"/>
<path d="M 42.00 121.79 L 312.00 18.46" class="cvd"/>
<path d="M 58.87 115.00 L 140.14 84.29 L 221.42 53.69 L 302.70 21.56" class="cv2"/>
<circle cx="58.87" cy="115.00" r="2.20" class="dot"/>
<circle cx="140.14" cy="84.29" r="2.20" class="dot"/>
<circle cx="221.42" cy="53.69" r="2.20" class="dot"/>
<circle cx="302.70" cy="21.56" r="2.20" class="dot"/>
<path d="M 58.87 146.13 L 140.14 146.49 L 221.42 147.01 L 302.70 146.00" class="cv5"/>
<circle cx="58.87" cy="146.13" r="2.20" class="dot2"/>
<circle cx="140.14" cy="146.49" r="2.20" class="dot2"/>
<circle cx="221.42" cy="147.01" r="2.20" class="dot2"/>
<circle cx="302.70" cy="146.00" r="2.20" class="dot2"/>
<line x1="58.87" y1="162.00" x2="58.87" y2="165.00" class="ax"/>
<text x="58.87" y="174.00" class="tick" text-anchor="middle">4</text>
<line x1="140.14" y1="162.00" x2="140.14" y2="165.00" class="ax"/>
<text x="140.14" y="174.00" class="tick" text-anchor="middle">16</text>
<line x1="221.42" y1="162.00" x2="221.42" y2="165.00" class="ax"/>
<text x="221.42" y="174.00" class="tick" text-anchor="middle">64</text>
<line x1="302.70" y1="162.00" x2="302.70" y2="165.00" class="ax"/>
<text x="302.70" y="174.00" class="tick" text-anchor="middle">256</text>
<text x="177.00" y="187.00" class="axname" text-anchor="middle">d</text>
<line x1="39.00" y1="146.45" x2="42.00" y2="146.45" class="ax"/>
<text x="37.00" y="149.45" class="tick" text-anchor="end">1</text>
<line x1="39.00" y1="94.78" x2="42.00" y2="94.78" class="ax"/>
<text x="37.00" y="97.78" class="tick" text-anchor="end">10</text>
<line x1="39.00" y1="43.11" x2="42.00" y2="43.11" class="ax"/>
<text x="37.00" y="46.11" class="tick" text-anchor="end">100</text>
<line x1="52.00" y1="27.00" x2="64.00" y2="27.00" class="cv2"/>
<text x="68.00" y="30.00" class="tick" text-anchor="start">Var(q·k)</text>
<line x1="52.00" y1="38.00" x2="64.00" y2="38.00" class="cv5"/>
<text x="68.00" y="41.00" class="tick" text-anchor="start">Var(q·k/√d)</text>
<line x1="52.00" y1="49.00" x2="64.00" y2="49.00" class="cvd"/>
<text x="68.00" y="52.00" class="tick" text-anchor="start">분산 = d</text>
<text x="176.00" y="196.00" class="cap" text-anchor="middle">성분 분산 1 인 q, k 를 d 마다 1만 쌍 (out/attention.txt)</text>
</svg>
